# xmcd CD database file
#
# Track frame offsets:
#	150
#	18437
#	34542
#	52960
#
# Disc length: 948 seconds
#
# Revision: 2
# Processed by: cddbd v1.5.2PL0 Copyright (c) Steve Scherf et al.
# Submitted via: CDex 1.70beta2
#
DISCID=2403b204
DTITLE=甲斐バンド - 甘いKissをしようぜ
DYEAR=2000
DGENRE=Japanese Rock
TTITLE0=甘いKissをしようぜ
TTITLE1=悲しき愛奴（サーファー）
TTITLE2=甘いKissをしようぜ（DUET VERSION）
TTITLE3=甘いKissをしようぜ（TV MIX）
EXTD=YEAR: 2000
EXTT0=
EXTT1=
EXTT2=
EXTT3=
PLAYORDER=
